<svg xmlns="http://www.w3.org/2000/svg" viewBox="0 0 486.21 277.91"><title>Two Half StoriesAsset 1</title><g id="Layer_2" data-name="Layer 2"><g id="Layer_1-2" data-name="Layer 1"><path d="M36.6,99.23l.61,15.31H36.05q-2.69-8.12-4.75-11.07a6.85,6.85,0,0,0-6-3h-.74v40.14h5.19v1.28H7.5v-1.28h5.19V100.51H11.9a6.92,6.92,0,0,0-6,3.08q-2.15,3.07-4.7,11H0L.61,99.23Z"/><path d="M61.25,114v-1.1H77V114h-2.5L80,134.55,85.41,114H81.2v-1.1h8.23V114H86.87l-7.32,27.94H71.19l-5.3-18.73-5.74,18.73H52L43,114H40.2v-1.1H58.69V114H55l5.61,20.74L65,120.46,63.51,114Z"/><path d="M95.05,138.63q-3.92-3.9-3.91-11.19t4.18-11.22q4.19-3.94,11.74-3.94t11.29,3.63q3.72,3.63,3.72,11.07,0,15.55-15.49,15.56Q98.95,142.54,95.05,138.63Zm15.31-8.72v-5.18a41.34,41.34,0,0,0-.64-8.64c-.43-1.8-1.41-2.71-3-2.71a3.06,3.06,0,0,0-2.17.76,4.71,4.71,0,0,0-1.19,2.53,47.22,47.22,0,0,0-.54,8.36v4.76c0,4.43.13,7.1.39,8a13.53,13.53,0,0,0,.83,2.2,2.6,2.6,0,0,0,2.62,1.46c1.59,0,2.62-.91,3.11-2.74Q110.37,136.75,110.36,129.91Z"/><path d="M138.48,99.23h19v1.15H154V119.3h12.14V100.38h-3.6V99.23h19.09v1.15H178v40.39h3.6v1.16H162.52v-1.16h3.6V120.88H154v19.89h3.54v1.16h-19v-1.16h3.6V100.38h-3.6Z"/><path d="M199.67,127.59h1.77V122.9q0-5.81-.64-7.78a2.48,2.48,0,0,0-2.47-2,3.62,3.62,0,0,0-2,.58,1.81,1.81,0,0,0-.88,1.59,6,6,0,0,0,.37,2h1.52a8.64,8.64,0,0,1,.49,3.09,4,4,0,0,1-1.53,3.11,5.68,5.68,0,0,1-3.84,1.31q-5.25,0-5.25-5.06,0-7.51,12.75-7.51,7.26,0,10,2.47t2.78,9.06V136.2c0,2.11.59,3.17,1.77,3.17q2.07,0,2.44-6.29l.91.06q-.24,5.37-2,7.39t-5.8,2q-7.32,0-8.42-4.51a6.56,6.56,0,0,1-2.38,3.41,8.12,8.12,0,0,1-4.63,1.1q-9,0-9-7.38,0-4.33,3.45-5.95T199.67,127.59Zm-2.11,11.59a1.28,1.28,0,0,0,1.29.92q.94,0,1.77-1.56a9.39,9.39,0,0,0,.82-4.3v-5.67H201q-3.78,0-3.78,5.55v1A15.29,15.29,0,0,0,197.56,139.18Z"/><path d="M219.8,96.18h14.95v44.65h3.41v1.1H220v-1.1h3.36V97.27h-3.6Z"/><path d="M259.33,95.81a3,3,0,0,0-3.05,1.74,15.46,15.46,0,0,0-.73,5.58v9.76h8.05V114h-8.05v26.84H263v1.1H240.85v-1.1h3.35V114h-3.53v-1.1h3.53v-.24q0-8.79,3.36-13.33c2.23-3,6-4.55,11.22-4.55q5.19,0,7.45,2a6.22,6.22,0,0,1,2.25,4.72,5.35,5.35,0,0,1-1.4,4,5.15,5.15,0,0,1-3.72,1.34,4.94,4.94,0,0,1-3.57-1.19,3.68,3.68,0,0,1-1.25-2.74,12.07,12.07,0,0,1,.37-3h2.31Q262.45,95.81,259.33,95.81Z"/><path d="M297.46,141.26a9.18,9.18,0,0,0,5.4-1.65,5.68,5.68,0,0,0,2.35-5,5.83,5.83,0,0,0-2.54-5.09,24.14,24.14,0,0,0-7.19-3.09,48.91,48.91,0,0,1-6.77-2.28,18.07,18.07,0,0,1-4-2.56q-3.78-3.18-3.78-9.83a12.78,12.78,0,0,1,3.87-9.33q3.87-3.9,10.59-3.91a25.94,25.94,0,0,1,6.74,1,24.94,24.94,0,0,0,4.36,1c.57,0,1.08-.41,1.52-1.22h.67l.43,12.32h-1A37.78,37.78,0,0,0,302,103a9.67,9.67,0,0,0-6.95-3.2,8.89,8.89,0,0,0-5.83,1.73,5.76,5.76,0,0,0-2.07,4.64,5,5,0,0,0,2.47,4.45,22.27,22.27,0,0,0,6.07,2.54c2.4.65,4,1.09,4.73,1.34s1.69.58,2.8,1a14.38,14.38,0,0,1,2.75,1.35,20.54,20.54,0,0,1,2.26,1.77,8.49,8.49,0,0,1,1.86,2.34,15.59,15.59,0,0,1-2.47,17.54,14.88,14.88,0,0,1-10.83,4,40.36,40.36,0,0,1-8-.92c-3-.61-4.65-.91-5-.91q-.86,0-1.65,1.83h-.86L280.74,128h1a33.55,33.55,0,0,0,6.86,9.27Q292.83,141.26,297.46,141.26Z"/><path d="M319.42,133.21V114h-3.35v-1.1h3.35V105l11.35-2.81v10.68h7.93V114h-7.93v20.56a11.27,11.27,0,0,0,.58,4.21,2.35,2.35,0,0,0,2.41,1.34,4,4,0,0,0,3.2-1.83,10.72,10.72,0,0,0,1.8-5l1,.12a11.82,11.82,0,0,1-2.69,6.68q-2.19,2.48-7.26,2.47c-3.37,0-6-.67-7.75-2S319.42,136.74,319.42,133.21Z"/><path d="M346.32,138.63q-3.9-3.9-3.9-11.19t4.18-11.22q4.17-3.94,11.74-3.94t11.29,3.63q3.72,3.63,3.72,11.07,0,15.55-15.5,15.56Q350.23,142.54,346.32,138.63Zm15.32-8.72v-5.18a42,42,0,0,0-.64-8.64c-.43-1.8-1.42-2.71-3-2.71a3.06,3.06,0,0,0-2.17.76,4.64,4.64,0,0,0-1.19,2.53,47,47,0,0,0-.55,8.36v4.76c0,4.43.13,7.1.4,8a13.61,13.61,0,0,0,.82,2.2,2.61,2.61,0,0,0,2.63,1.46c1.58,0,2.62-.91,3.11-2.74C361.45,137.4,361.64,134.47,361.64,129.91Z"/><path d="M397,114.6q-2.26,0-4,2.93a13.54,13.54,0,0,0-1.71,7v16.35h4.34v1.1h-19v-1.1h3.36V114h-3.36v-1.1h14.7v5.86a8.3,8.3,0,0,1,3.05-4.79,8.39,8.39,0,0,1,5.13-1.68,6.72,6.72,0,0,1,4.67,1.62,5.83,5.83,0,0,1,1.8,4.57,6.83,6.83,0,0,1-1.35,4.55,5.06,5.06,0,0,1-4.11,1.58,4.68,4.68,0,0,1-4.09-1.83c-.88-1.22-1-2.9-.34-5.06h2.2C399.25,115.64,398.83,114.6,397,114.6Z"/><path d="M408.06,112.89H423v27.94h3.41v1.1H408.3v-1.1h3.36V114h-3.6Zm9.21-4.21c-2.15,0-3.69-.55-4.6-1.64a6.17,6.17,0,0,1-1.38-4.09,5.63,5.63,0,0,1,1.5-4,5.94,5.94,0,0,1,4.54-1.59A6.68,6.68,0,0,1,422,98.77a5.22,5.22,0,0,1,1.59,4.09A5.87,5.87,0,0,1,422,107.1,6.37,6.37,0,0,1,417.27,108.68Z"/><path d="M433.41,138.48q-3.95-4-3.94-11.28t4.43-11.08a16.53,16.53,0,0,1,11.25-3.84q13.85,0,13.3,13.91h-17.2v2.38c0,4,.5,7,1.52,9a5.45,5.45,0,0,0,5.31,3.05q7.08,0,9.27-7.57l1.1.19a12.61,12.61,0,0,1-4.18,6.83q-3,2.44-9.06,2.44Q437.35,142.54,433.41,138.48Zm7.9-13.51h6.28v-3a25.6,25.6,0,0,0-.58-6.74,2.29,2.29,0,0,0-2.32-1.8,2.71,2.71,0,0,0-2.56,1.92,18.58,18.58,0,0,0-.82,6.62Z"/><path d="M463,142.54V131.62h.74c1.05,3.54,2.48,6,4.27,7.44a10.4,10.4,0,0,0,6.71,2.14q6.22,0,6.22-4a2.77,2.77,0,0,0-1.52-2.56,20.57,20.57,0,0,0-6.11-2.07,24.12,24.12,0,0,1-6.95-2.93q-3.36-2.2-3.36-7a10.09,10.09,0,0,1,2.93-7.59,10.76,10.76,0,0,1,7.81-2.84,15.25,15.25,0,0,1,6.16,1.4,5,5,0,0,0,1.77.49,1.43,1.43,0,0,0,1-.42,7.57,7.57,0,0,0,1-1.59h.67v9.33h-.73q-3.12-7.92-9.64-7.93a7.33,7.33,0,0,0-4.27,1,3,3,0,0,0-1.41,2.53,2.14,2.14,0,0,0,.43,1.43c.28.35.51.6.67.77a3.45,3.45,0,0,0,.79.52c.37.18.67.32.92.42s.62.24,1.13.4a9,9,0,0,0,1.13.3,50.42,50.42,0,0,1,6,1.8,21.06,21.06,0,0,1,3.47,1.86q3.36,2.33,3.36,7.48c0,3.43-1,6-3,7.81s-4.82,2.65-8.36,2.65a16.18,16.18,0,0,1-7.32-1.77,2.43,2.43,0,0,0-1.16-.49c-.9,0-1.77.76-2.62,2.26Z"/><path d="M126.71,177.46c0-.67.27-1,.82-1s.84.34.84,1-.28,1-.84,1S126.71,178.12,126.71,177.46Z"/><path d="M132.75,177.46c0-.67.27-1,.82-1s.84.34.84,1-.28,1-.84,1S132.75,178.12,132.75,177.46Z"/><path d="M138.79,177.46c0-.67.27-1,.82-1s.84.34.84,1-.28,1-.84,1S138.79,178.12,138.79,177.46Z"/><path d="M158.29,178.25l-.26-1.76H158a5.18,5.18,0,0,1-1.73,1.52,4.54,4.54,0,0,1-2.09.45,3.63,3.63,0,0,1-2.55-.84,3,3,0,0,1-.91-2.33,2.89,2.89,0,0,1,1.35-2.53,7.48,7.48,0,0,1,3.93-.95l2.12-.06V171a3.75,3.75,0,0,0-.64-2.39,2.51,2.51,0,0,0-2.08-.81,6.91,6.91,0,0,0-3.21.86l-.38-.88a8.42,8.42,0,0,1,3.63-.86,3.61,3.61,0,0,1,2.74.95,4.19,4.19,0,0,1,.91,3v7.4Zm-4.1-.71a3.55,3.55,0,0,0,3.84-3.85v-1.1l-1.94.08a7.49,7.49,0,0,0-3.35.73,2.38,2.38,0,0,0-.36,3.56A2.64,2.64,0,0,0,154.19,177.54Z"/><path d="M171.46,178.25V171a3.52,3.52,0,0,0-.71-2.44,2.84,2.84,0,0,0-2.19-.76,3.77,3.77,0,0,0-2.93,1,4.73,4.73,0,0,0-.93,3.27v6.14h-1V167.12h.86l.2,1.53h.06a4.18,4.18,0,0,1,3.86-1.75q3.79,0,3.79,4.07v7.28Z"/><path d="M181.19,166.9a4.54,4.54,0,0,1,2.09.45,4.14,4.14,0,0,1,1.58,1.5h.06c0-.86-.06-1.7-.06-2.53v-4h1v15.93h-.66l-.26-1.7h-.08a4.14,4.14,0,0,1-3.65,1.91,4.37,4.37,0,0,1-3.52-1.43,6.26,6.26,0,0,1-1.22-4.18,7,7,0,0,1,1.21-4.42A4.19,4.19,0,0,1,181.19,166.9Zm0,.93a3.13,3.13,0,0,0-2.74,1.28,6.34,6.34,0,0,0-.92,3.72q0,4.72,3.68,4.73a3.35,3.35,0,0,0,2.77-1.1,5.85,5.85,0,0,0,.88-3.61v-.18A6.15,6.15,0,0,0,184,169,3.29,3.29,0,0,0,181.19,167.83Z"/><path d="M205.83,167.12v.71l-2.3.14a3.94,3.94,0,0,1,.92,2.52,3.43,3.43,0,0,1-1.07,2.61,4.06,4.06,0,0,1-2.87,1,5.29,5.29,0,0,1-1.07-.07,2.84,2.84,0,0,0-.92.75,1.53,1.53,0,0,0-.32.91.84.84,0,0,0,.41.78,2.66,2.66,0,0,0,1.35.25h1.95a4.53,4.53,0,0,1,2.78.73,2.56,2.56,0,0,1,1,2.17,3.1,3.1,0,0,1-1.43,2.72,7.36,7.36,0,0,1-4.07.95,5.59,5.59,0,0,1-3.25-.81,2.59,2.59,0,0,1-1.16-2.25,2.64,2.64,0,0,1,.72-1.9,3.65,3.65,0,0,1,1.93-1,1.86,1.86,0,0,1-.81-.61,1.44,1.44,0,0,1-.3-.9,2.4,2.4,0,0,1,1.42-2,3.22,3.22,0,0,1-1.51-1.26,3.58,3.58,0,0,1-.54-2,3.53,3.53,0,0,1,1.06-2.68,4,4,0,0,1,2.86-1,5.34,5.34,0,0,1,1.7.22Zm-9,13c0,1.53,1.14,2.29,3.41,2.29q4.38,0,4.38-2.79a1.61,1.61,0,0,0-.68-1.46,4.19,4.19,0,0,0-2.22-.45h-1.83C197.84,177.73,196.82,178.53,196.82,180.14Zm.85-9.55a2.56,2.56,0,0,0,.78,2,3,3,0,0,0,2.1.72,3,3,0,0,0,2.13-.71,2.67,2.67,0,0,0,.75-2,2.76,2.76,0,0,0-.77-2.13,3,3,0,0,0-2.13-.72,2.65,2.65,0,0,0-2.86,2.89Z"/><path d="M213.55,166.9a8.4,8.4,0,0,1,1.52.15l-.2,1a6.17,6.17,0,0,0-1.44-.17,2.8,2.8,0,0,0-2.34,1.21,4.89,4.89,0,0,0-.91,3.05v6.14h-1V167.12H210l.1,2h.07a4.74,4.74,0,0,1,1.47-1.73A3.42,3.42,0,0,1,213.55,166.9Z"/><path d="M222.88,178.46a4.86,4.86,0,0,1-3.79-1.5,6,6,0,0,1-1.36-4.19,6.5,6.5,0,0,1,1.32-4.26,4.32,4.32,0,0,1,3.53-1.61,3.79,3.79,0,0,1,3.1,1.38,5.65,5.65,0,0,1,1.14,3.73v.82h-8a5.25,5.25,0,0,0,1.07,3.5,3.79,3.79,0,0,0,3,1.21,9.14,9.14,0,0,0,1.67-.14,9.82,9.82,0,0,0,1.83-.57v.92a7.91,7.91,0,0,1-1.74.56A9.55,9.55,0,0,1,222.88,178.46Zm-.3-10.65a3.33,3.33,0,0,0-2.58,1.06,5,5,0,0,0-1.14,3h6.89a4.82,4.82,0,0,0-.85-3A2.75,2.75,0,0,0,222.58,167.81Z"/><path d="M229.08,167.12h1l2.36,6.25c.72,1.92,1.17,3.21,1.36,3.88h.06c.29-.88.76-2.2,1.41-3.94l2.35-6.19h1.05l-5,12.94a9.61,9.61,0,0,1-1,2.13,2.76,2.76,0,0,1-.95.83,3,3,0,0,1-1.33.27,4.67,4.67,0,0,1-1.3-.21v-.88a4.78,4.78,0,0,0,1.28.16,1.73,1.73,0,0,0,.92-.24,2.24,2.24,0,0,0,.72-.77,9.12,9.12,0,0,0,.75-1.64c.28-.74.47-1.23.55-1.46Z"/><path d="M254.88,178.25l-.26-1.76h-.08a5.16,5.16,0,0,1-1.72,1.52,4.61,4.61,0,0,1-2.1.45,3.63,3.63,0,0,1-2.55-.84,3,3,0,0,1-.91-2.33,2.88,2.88,0,0,1,1.36-2.53,7.41,7.41,0,0,1,3.92-.95l2.13-.06V171a3.74,3.74,0,0,0-.65-2.39,2.5,2.5,0,0,0-2.08-.81,6.91,6.91,0,0,0-3.21.86l-.38-.88a8.45,8.45,0,0,1,3.63-.86,3.59,3.59,0,0,1,2.74.95,4.14,4.14,0,0,1,.91,3v7.4Zm-4.1-.71a3.55,3.55,0,0,0,3.84-3.85v-1.1l-1.94.08a7.49,7.49,0,0,0-3.35.73A2.38,2.38,0,0,0,249,177,2.64,2.64,0,0,0,250.78,177.54Z"/><path d="M264.67,166.9a8.29,8.29,0,0,1,1.51.15l-.19,1a6.32,6.32,0,0,0-1.45-.17,2.77,2.77,0,0,0-2.33,1.21,4.9,4.9,0,0,0-.92,3.05v6.14h-1V167.12h.86l.1,2h.08a4.64,4.64,0,0,1,1.46-1.73A3.46,3.46,0,0,1,264.67,166.9Z"/><path d="M274,178.46a4.82,4.82,0,0,1-3.78-1.5,6,6,0,0,1-1.36-4.19,6.55,6.55,0,0,1,1.31-4.26,4.32,4.32,0,0,1,3.53-1.61,3.82,3.82,0,0,1,3.11,1.38,5.65,5.65,0,0,1,1.13,3.73v.82h-8a5.3,5.3,0,0,0,1.07,3.5,3.8,3.8,0,0,0,3,1.21,9.26,9.26,0,0,0,1.68-.14,9.54,9.54,0,0,0,1.82-.57v.92a7.59,7.59,0,0,1-1.74.56A9.55,9.55,0,0,1,274,178.46Zm-.3-10.65a3.33,3.33,0,0,0-2.58,1.06,4.9,4.9,0,0,0-1.13,3h6.88a4.82,4.82,0,0,0-.84-3A2.77,2.77,0,0,0,273.69,167.81Z"/><path d="M288.82,178.25l-.26-1.76h-.08a5.18,5.18,0,0,1-1.73,1.52,4.57,4.57,0,0,1-2.09.45,3.63,3.63,0,0,1-2.55-.84,3,3,0,0,1-.91-2.33,2.89,2.89,0,0,1,1.35-2.53,7.48,7.48,0,0,1,3.93-.95l2.12-.06V171a3.75,3.75,0,0,0-.64-2.39,2.51,2.51,0,0,0-2.08-.81,6.91,6.91,0,0,0-3.21.86l-.38-.88a8.42,8.42,0,0,1,3.63-.86,3.59,3.59,0,0,1,2.74.95,4.19,4.19,0,0,1,.91,3v7.4Zm-4.1-.71a3.55,3.55,0,0,0,3.84-3.85v-1.1l-1.94.08a7.49,7.49,0,0,0-3.35.73,2.38,2.38,0,0,0-.36,3.56A2.64,2.64,0,0,0,284.72,177.54Z"/><path d="M301.12,175.36a2.65,2.65,0,0,1-1.13,2.3,5.6,5.6,0,0,1-3.23.8,7.63,7.63,0,0,1-3.54-.69v-1.09a7.81,7.81,0,0,0,3.54.84,4.7,4.7,0,0,0,2.5-.55,1.67,1.67,0,0,0,.86-1.46,1.78,1.78,0,0,0-.68-1.41A7.4,7.4,0,0,0,297.2,173a13.11,13.11,0,0,1-2.35-1,3.17,3.17,0,0,1-1-1,2.5,2.5,0,0,1-.35-1.34,2.3,2.3,0,0,1,1.05-2,5.15,5.15,0,0,1,2.94-.73,8.81,8.81,0,0,1,3.42.68l-.38.92a8,8,0,0,0-3-.67,4.39,4.39,0,0,0-2.16.45,1.36,1.36,0,0,0-.8,1.25,1.71,1.71,0,0,0,.62,1.39,8.53,8.53,0,0,0,2.42,1.17,12,12,0,0,1,2.19,1,3.25,3.25,0,0,1,1,1A2.44,2.44,0,0,1,301.12,175.36Z"/><rect x="88.23" y="237.71" width="108.89" height="2" transform="translate(-127 170.8) rotate(-45)"/><polygon points="379.97 0 374.47 5.5 302.97 77 302.47 77.5 303.88 78.91 304.38 78.41 375.88 6.91 381.38 1.41 379.97 0"/></g></g></svg>