<svg xmlns="http://www.w3.org/2000/svg" width="26.187" height="26.187" viewBox="0 0 26.187 26.187"><path d="M18.092,25.184a7.092,7.092,0,1,1,7.092-7.092A7.1,7.1,0,0,1,18.092,25.184Zm0-13.093a6,6,0,1,0,6,6A6.008,6.008,0,0,0,18.092,12.091Z" transform="translate(1.002 1.002)"/><path d="M16.728,20.456a.551.551,0,0,1-.386-.159l-2.182-2.182a.545.545,0,0,1,.771-.771l1.77,1.77,3.435-3.926a.546.546,0,0,1,.822.718l-3.819,4.364a.55.55,0,0,1-.393.187h-.017Z" transform="translate(1.275 1.367)"/><path d="M10.274,21.184H2.637A1.639,1.639,0,0,1,1,19.548v-12A.546.546,0,0,1,1.546,7H20.094a.546.546,0,0,1,.546.546V9.793a.546.546,0,1,1-1.091,0v-1.7H2.091V19.548a.546.546,0,0,0,.546.546h7.638a.546.546,0,1,1,0,1.091Z" transform="translate(0.091 0.638)"/><path d="M13,11.091H7.546a.546.546,0,1,1,0-1.091H13a.546.546,0,0,1,0,1.091Z" transform="translate(0.638 0.911)"/><path d="M21.277,8.456H.546A.546.546,0,0,1,0,7.91V3.546A.546.546,0,0,1,.546,3H21.277a.546.546,0,0,1,.546.546V7.91A.546.546,0,0,1,21.277,8.456ZM1.091,7.364h19.64V4.091H1.091Z" transform="translate(0 0.273)"/><path d="M21.276,4.364a.548.548,0,0,1-.386-.159L17.777,1.091H4.045L.932,4.205A.545.545,0,1,1,.16,3.434L3.434.16A.541.541,0,0,1,3.819,0H18a.549.549,0,0,1,.386.159l3.273,3.273a.546.546,0,0,1-.386.932Z" transform="translate(0 0)"/></svg>